<svg xmlns="http://www.w3.org/2000/svg"  viewBox="0 0 48 48" width="50px" height="50px"><path fill="#d6e5e5" d="M5.069,30.204c-0.11-3.937,0.029-7.628-0.159-11.562c-0.093-1.939-0.208-3.892,0.061-5.815 s0.954-3.841,2.276-5.276c1.897-2.059,4.846-2.861,7.661-2.97c2.815-0.109,5.62,0.373,8.437,0.422 c2.842,0.049,5.675-0.343,8.517-0.338s5.786,0.448,8.158,1.996c0.729,0.476,1.4,1.058,1.884,1.778 c0.755,1.123,1.006,2.498,1.166,3.837c0.947,7.913-0.707,15.939-0.04,23.88c0.471,5.613-7.109,6.827-8.929,6.974 c-2.285,0.184-4.569-0.252-6.856-0.412c-5.984-0.419-12.145,1.039-17.921-0.563c-0.612-0.17-1.225-0.378-1.737-0.751 c-0.61-0.444-1.036-1.096-1.351-1.777c-0.839-1.811-0.963-3.855-1.075-5.844C5.089,32.507,5.105,31.482,5.069,30.204z"/><path fill="#373837" d="M26.135,14.792c-2.636-0.343-4.182-0.805-6.605,0.258c-0.835,0.366-1.582,0.895-2.298,1.45 c-0.772,0.597-1.523,1.237-2.092,2.019c-0.739,1.015-1.14,2.232-1.326,3.461c-0.565,3.725,0.918,7.721,3.918,10.119 s7.441,3.034,10.961,1.43c4.036-1.839,6.41-6.531,5.525-10.763S30.557,15.368,26.135,14.792z"/><path fill="#010101" d="M32.944,43.674c-1.228,0-2.449-0.131-3.64-0.259c-0.698-0.075-1.396-0.15-2.096-0.199 c-2.246-0.157-4.571-0.044-6.817,0.065c-3.712,0.182-7.546,0.368-11.202-0.645c-0.605-0.168-1.306-0.397-1.897-0.829 c-0.609-0.444-1.103-1.088-1.511-1.971c-0.891-1.924-1.013-4.103-1.12-6.026c-0.046-0.822-0.057-1.541-0.067-2.289 c-0.006-0.417-0.012-0.844-0.024-1.304l0,0c-0.048-1.707-0.049-3.388-0.05-5.014c-0.001-2.121-0.003-4.314-0.109-6.538 l-0.016-0.314c-0.089-1.833-0.181-3.729,0.08-5.594c0.317-2.266,1.148-4.183,2.403-5.546c2.226-2.417,5.584-3.036,8.01-3.13 c1.649-0.064,3.315,0.073,4.924,0.206c1.162,0.096,2.364,0.195,3.541,0.215c1.472,0.029,2.982-0.072,4.439-0.166 c1.312-0.084,2.667-0.172,4.012-0.172c0.019,0,0.038,0,0.058,0c3.54,0.006,6.298,0.686,8.431,2.077 c0.871,0.569,1.553,1.214,2.025,1.918c0.814,1.212,1.081,2.666,1.247,4.056c0.506,4.225,0.275,8.531,0.052,12.695 c-0.197,3.683-0.401,7.492-0.09,11.203c0.131,1.553-0.298,2.923-1.272,4.073c-2.464,2.907-7.543,3.395-8.114,3.441 C33.741,43.66,33.343,43.674,32.944,43.674z M24.8,42.139c0.828,0,1.656,0.022,2.479,0.08c0.711,0.049,1.421,0.125,2.132,0.202 c1.529,0.165,3.112,0.333,4.648,0.21c0.211-0.017,5.191-0.448,7.432-3.091c0.797-0.939,1.146-2.064,1.039-3.342 c-0.317-3.78-0.111-7.624,0.088-11.34c0.221-4.122,0.449-8.384-0.046-12.522c-0.151-1.266-0.388-2.581-1.085-3.618 c-0.397-0.592-0.983-1.143-1.742-1.638C37.78,5.797,35.2,5.171,31.859,5.165c-1.323,0.019-2.688,0.085-4.003,0.17 c-1.477,0.096-3.005,0.195-4.521,0.168c-1.209-0.021-2.428-0.122-3.606-0.219c-1.577-0.13-3.21-0.263-4.802-0.204 C12.69,5.167,9.606,5.726,7.614,7.89c-1.117,1.212-1.86,2.943-2.149,5.007c-0.247,1.772-0.158,3.62-0.071,5.407l0.015,0.314 c0.108,2.248,0.11,4.453,0.111,6.585c0.001,1.619,0.002,3.294,0.05,4.986v0c0.013,0.464,0.019,0.896,0.024,1.317 c0.011,0.734,0.021,1.44,0.065,2.248c0.107,1.923,0.219,3.911,1.03,5.662C7.023,40.142,7.413,40.659,7.881,41 c0.461,0.336,1.03,0.522,1.576,0.673c3.498,0.97,7.252,0.787,10.886,0.61C21.807,42.211,23.304,42.139,24.8,42.139z"/><path fill="#010101" d="M24.476,34.919c-2.518,0-5.06-0.835-7.057-2.431c-3.09-2.471-4.699-6.625-4.1-10.584 c0.221-1.454,0.697-2.691,1.416-3.68c0.622-0.854,1.421-1.523,2.191-2.12c0.675-0.522,1.488-1.111,2.402-1.512 c2.205-0.966,3.716-0.748,5.804-0.445c0.338,0.049,0.691,0.1,1.067,0.149c4.415,0.574,7.516,3.624,8.507,8.366 c0.944,4.515-1.553,9.382-5.808,11.321C27.519,34.613,26.001,34.919,24.476,34.919z M22.542,14.891 c-0.892,0-1.76,0.156-2.811,0.617c-0.813,0.356-1.534,0.877-2.193,1.387c-0.712,0.551-1.446,1.165-1.994,1.917 c-0.624,0.857-1.04,1.948-1.236,3.242c-0.547,3.612,0.919,7.401,3.736,9.653c2.873,2.297,7.167,2.858,10.441,1.366 c3.776-1.721,6.08-6.204,5.243-10.206c-0.899-4.301-3.69-7.063-7.657-7.58l0,0c-0.382-0.049-0.74-0.102-1.082-0.151 C24.072,15.004,23.299,14.891,22.542,14.891z"/><path fill="#f58420" d="M35.5,9.5c-0.718-0.029-1.341-0.162-1.997,0.129s-1.196,0.913-1.243,1.63 c-0.032,0.498,0.169,0.987,0.454,1.396c0.534,0.767,1.405,1.318,2.338,1.367c0.934,0.05,1.9-0.448,2.317-1.285 c0.13-0.26,0.207-0.551,0.192-0.841c-0.016-0.3-0.129-0.589-0.281-0.848C36.728,10.112,36.587,9.543,35.5,9.5z"/><path fill="#010101" d="M35.186,14.526c-0.053,0-0.105-0.001-0.159-0.004c-1.055-0.057-2.072-0.647-2.723-1.582 c-0.392-0.562-0.579-1.155-0.543-1.714c0.057-0.859,0.66-1.666,1.54-2.055c0.633-0.28,1.226-0.237,1.798-0.197 c0.137,0.01,0.277,0.02,0.421,0.026l0,0c1.212,0.048,1.568,0.687,1.981,1.426c0.064,0.115,0.133,0.238,0.21,0.369 c0.215,0.363,0.333,0.726,0.35,1.077c0.02,0.354-0.064,0.731-0.243,1.089C37.344,13.912,36.3,14.526,35.186,14.526z M34.469,9.944 c-0.271,0-0.517,0.032-0.764,0.141c-0.534,0.237-0.915,0.721-0.946,1.206c-0.027,0.418,0.184,0.817,0.365,1.078 c0.469,0.672,1.218,1.115,1.955,1.154c0.77,0.037,1.527-0.374,1.844-1.009c0.101-0.203,0.149-0.407,0.14-0.591 c-0.01-0.19-0.081-0.397-0.212-0.62c-0.082-0.138-0.154-0.268-0.223-0.39c-0.381-0.683-0.496-0.888-1.147-0.915 c-0.155-0.006-0.307-0.017-0.454-0.027C34.826,9.958,34.643,9.944,34.469,9.944z"/></svg>