<svg xmlns="http://www.w3.org/2000/svg"  viewBox="0 0 48 48" width="50px" height="50px"><path fill="#ef4754" d="M4.375,14.5c0.094,3.198,0.655,9.64,0.232,15.125c-0.232,3,0.004,8.093-0.107,9.25	C4.25,41.5,8,43.75,9.75,43.625c0.749-0.053,4.639,0.169,8.375,0.125c4.997-0.058,10.212-0.375,12-0.375	c3.125,0,5.443,0.125,7.125,0.125c1.627,0,3.575-0.997,4.75-2.25c1.262-1.346,1.69-3.007,1.625-4.625	c-0.067-1.676-0.486-6.009-0.5-9.375c-0.012-2.91,0.288-4.911,0.375-6.125c0.106-1.473,0.234-3.707,0-8.625c-0.113-2.372,0-4-2-6	s-4.25-2-5.125-2s-7.625-0.25-8.875,0S20.75,4,19.625,4.25S12,4.5,11.5,4.5s-4.484,0.541-6,2.625C4.5,8.5,4.243,10,4.375,14.5z"/><path fill="#fff" d="M37.25,28.875c-0.036-3.664,0.25-7.131,0.25-7.375c0-0.5-7.625-0.25-10.5-0.25	c-1.625,0-3.007,0.429-5.25,0.25c-3.125-0.25-11.25,0-11.25,0s0.25,5.999,0.25,8.187s-0.25,6.057-0.25,6.938	C10.5,38,11.25,38.5,12,38.5s0.625-0.125,1.875-0.125s5.25,0.125,5.25,0.125l8-0.375l7,0.375h1.75c0.875,0,1.622-0.452,1.618-1.007	c0,0,0.132-1.194,0.132-2.118C37.626,33.833,37.274,31.276,37.25,28.875z M13.25,23.625C12.615,24.089,12,24.627,12,24.458	c0-0.292,0-0.583,0-0.583v-0.618C12,23.115,12.115,23,12.257,23c0,0,1.368,0,1.843,0C14.3,23,13.71,23.288,13.25,23.625z M18.875,23.146c-0.054,0.045-0.625,0.604-1.25,0.979c-0.822,0.493-1.436,1.259-1.436,1.259c-0.09,0.075-0.203,0.116-0.32,0.116	c0,0-1.669,0.25-1.769,0c-0.044-0.111,0.64-0.623,1.275-1.125c0.796-0.629,1.586-1.259,1.586-1.259	c0.09-0.075,0.203-0.116,0.32-0.116c0,0,0.344,0,0.969,0C18.645,23,19,23.042,18.875,23.146z M20.819,25.5c0,0-1.019,0-1.569,0	c-0.259,0,0.443-0.44,1.125-1c0.765-0.628,1.536-1.384,1.536-1.384c0.09-0.075,0.203-0.116,0.32-0.116H23.5c0,0,0.5,0,0.125,0.312	s-2.486,2.072-2.486,2.072C21.049,25.459,20.936,25.5,20.819,25.5z M27.807,31.895c-0.048,0.037-1.188,0.918-2.6,1.561	c-1.302,0.592-2.39,1.431-2.4,1.44C22.717,34.964,22.609,35,22.5,35c-0.079,0-0.158-0.019-0.231-0.057	c-0.174-0.09-0.278-0.274-0.268-0.469c0.001-0.023,0.124-2.372,0.124-3.224c0-0.848-0.123-2.698-0.124-2.717	c-0.011-0.169,0.064-0.333,0.201-0.435c0.137-0.101,0.314-0.126,0.474-0.067c0.113,0.042,1.123,0.433,1.687,1.023	c0.306,0.321,2.154,1.364,3.37,2.002c0.15,0.079,0.251,0.229,0.266,0.398C28.013,31.625,27.941,31.791,27.807,31.895z M27.75,23.875	c-0.803,0.679-1.661,1.509-1.661,1.509c-0.09,0.075-0.203,0.116-0.32,0.116c0,0-1.019,0-1.644,0c-0.24,0,0.523-0.398,1-0.875	c0.625-0.625,1.597-1.47,1.736-1.509c0.09-0.075,0.203-0.116,0.32-0.116c0,0,1.019,0,1.569,0C28.977,23,28.314,23.398,27.75,23.875z M31.039,25.384c-0.09,0.075-0.203,0.116-0.32,0.116c0,0-1.094,0-1.594,0c-0.17,0,0.087-0.135,0.5-0.5	c0.433-0.382,0.875-0.952,1.375-1.25c0.445-0.266,0.811-0.634,0.811-0.634c0.09-0.075,0.203-0.116,0.32-0.116c0,0,0.869,0,1.494,0	S31.039,25.384,31.039,25.384z M36,25.5c0,0-0.754-0.006-1.375,0c-0.339,0.003-0.725,0.088-0.725,0c0-0.25,1.829-1.521,1.975-1.375	S36,25.5,36,25.5z"/><path fill="#fff" d="M35.625,10.75C35.5,10,34.843,9.454,34.109,9.539c-0.734,0.086-2.713,0.373-4.974,1.229	c-2.26,0.856-18.464,5.292-18.9,5.527c-0.61,0.329-0.849,0.71-0.697,1.247c0,0,0.587,1.457,0.712,2.082s0.231,1.249,0.231,1.249	s7.144-1.624,9.394-2.124S30.834,15.644,32.25,15c2.75-1.25,4.049-1.433,4.049-1.433L35.625,10.75z M12,17.875	c-0.355,0.434-0.572,0.826-0.633,0.784c-0.133-0.091-0.329-1.157-0.329-1.157c-0.039-0.136,0.04-0.277,0.176-0.315	c0,0,1.786-0.687,1.775-0.504C12.983,16.782,12.42,17.361,12,17.875z M16.687,16.802c-0.656,0.699-1.037,1.603-1.037,1.603	c-0.066,0.097-0.164,0.167-0.276,0.199c0,0-1.537,0.696-1.702,0.483c-0.073-0.095,0.445-0.774,0.919-1.43	c0.594-0.822,1.182-1.644,1.182-1.644c0.066-0.097,0.164-0.167,0.276-0.199c0,0,0.331-0.094,0.932-0.265	c0.38-0.108,0.733-0.165,0.641-0.03C17.582,15.577,17.186,16.271,16.687,16.802z M21.375,15.5c-0.537,0.744-0.964,1.554-0.964,1.554	c-0.066,0.097-0.164,0.167-0.276,0.199c0,0-1.518,0.469-1.702,0.483c-0.183,0.014,0.317-0.557,0.442-0.646	C19,17,19.75,16,19.875,15.75s0.659-1.089,0.659-1.089c0.066-0.097,0.164-0.167,0.276-0.199c0,0,1.827-0.608,1.689-0.337	C22.436,14.252,21.848,14.844,21.375,15.5z M26.125,14.25c-0.502,0.686-0.952,1.452-0.952,1.452	c-0.066,0.097-0.164,0.167-0.276,0.199c0,0-1.632,0.617-1.702,0.483c-0.024-0.045,0.359-0.415,0.68-0.884	c0.623-0.91,1.421-2.191,1.421-2.191c0.066-0.097,0.164-0.167,0.276-0.199c0,0,0.427,0.015,0.677-0.11s1.024-0.498,1-0.25	C27.238,12.877,26.654,13.526,26.125,14.25z M31,12.75c-0.539,0.743-1.065,1.6-1.065,1.6c-0.066,0.097-0.164,0.167-0.276,0.199	c0,0-1.37,0.515-1.702,0.483c-0.14-0.014,0.338-0.65,0.793-1.282c0.622-0.864,1.308-1.793,1.308-1.793	c0.066-0.097,0.164-0.167,0.276-0.199c0,0,1.702-0.733,1.666-0.383C31.983,11.54,31.482,12.087,31,12.75z M34.625,12.625	c0.044,0.156-0.046,0.318-0.202,0.362c0,0-2.234,0.708-1.673,0.388c0.875-0.5,1.25-1.5,1.591-1.671	C34.681,11.532,34.625,12.625,34.625,12.625z"/><path fill="#010101" d="M17.112,44.256c-1.863,0-3.687-0.054-5.076-0.095c-1.099-0.032-1.967-0.057-2.25-0.038	c-1.277,0.087-3.188-0.808-4.442-2.092c-0.981-1.005-1.445-2.113-1.342-3.204c0.043-0.443,0.03-1.579,0.016-2.895	c-0.021-2.023-0.049-4.541,0.091-6.346c0.318-4.124,0.075-8.806-0.103-12.225c-0.058-1.101-0.107-2.069-0.131-2.847l0,0	c-0.133-4.532,0.13-6.184,1.221-7.684C6.745,4.562,10.958,4,11.5,4c3.457,0,7.276-0.074,8.017-0.238	c0.587-0.13,1.903-0.045,4.002,0.112c1.557,0.116,3.32,0.25,3.884,0.136c0.952-0.189,4.467-0.119,7.684-0.038	C35.716,3.988,36.186,4,36.375,4c0.911,0,3.332,0,5.479,2.146c1.967,1.967,2.035,3.632,2.12,5.74l0.025,0.589	c0.25,5.227,0.087,7.477,0,8.685c-0.022,0.308-0.058,0.667-0.099,1.079c-0.12,1.205-0.285,2.855-0.275,5.008	c0.01,2.255,0.205,4.992,0.348,6.99c0.07,0.988,0.13,1.818,0.152,2.367c0.077,1.952-0.531,3.676-1.76,4.987	C41.035,43.01,38.932,44,37.25,44c-0.716,0-1.546-0.022-2.503-0.048c-1.295-0.035-2.824-0.077-4.622-0.077	c-0.731,0-2.046,0.054-3.711,0.122c-2.384,0.097-5.351,0.219-8.283,0.253C17.792,44.254,17.451,44.256,17.112,44.256z M10.106,43.117c0.427,0,1.086,0.019,1.959,0.045c1.633,0.048,3.868,0.113,6.054,0.088c2.918-0.034,5.876-0.155,8.254-0.252	c1.676-0.068,3-0.123,3.752-0.123c1.808,0,3.347,0.042,4.648,0.077C35.721,42.978,36.542,43,37.25,43	c1.404,0,3.249-0.88,4.386-2.092c1.315-1.404,1.536-3.093,1.489-4.263c-0.021-0.541-0.08-1.361-0.149-2.335	c-0.144-2.013-0.341-4.768-0.351-7.058c-0.01-2.205,0.158-3.885,0.28-5.111c0.039-0.401,0.074-0.75,0.096-1.051	c0.086-1.188,0.246-3.398,0-8.565l-0.026-0.597c-0.083-2.037-0.138-3.383-1.828-5.074C39.293,5,37.248,5,36.375,5	c-0.193,0-0.672-0.012-1.314-0.028c-2.123-0.054-6.542-0.166-7.463,0.019c-0.694,0.139-2.375,0.014-4.154-0.119	c-1.511-0.113-3.224-0.241-3.71-0.133C18.64,4.981,13.155,5,11.5,5c-0.391,0-4.219,0.526-5.596,2.419	c-0.934,1.283-1.154,2.802-1.029,7.066l0,0c0.022,0.771,0.072,1.733,0.129,2.824c0.18,3.446,0.425,8.166,0.101,12.354	c-0.136,1.761-0.108,4.255-0.087,6.258c0.016,1.399,0.027,2.505-0.02,3c-0.096,0.997,0.524,1.861,1.062,2.411	c1.121,1.148,2.776,1.856,3.655,1.793C9.809,43.12,9.939,43.117,10.106,43.117z"/><path fill="#010101" d="M35.875,39h-1.75l-7.026-0.375L19.148,39c-0.079-0.001-4.046-0.125-5.273-0.125	c-0.668,0-0.915,0.037-1.133,0.069C12.542,38.974,12.363,39,12,39c-0.923,0-2-0.622-2-2.375c0-0.346,0.038-1.147,0.084-2.128	c0.074-1.552,0.166-3.483,0.166-4.81c0-2.153-0.247-8.106-0.25-8.166l-0.021-0.505L10.484,21c0.334-0.01,8.19-0.248,11.306,0.001	c1.316,0.104,2.315-0.006,3.283-0.112c0.648-0.072,1.26-0.139,1.927-0.139c0.636,0,1.504-0.012,2.471-0.026	c6.781-0.095,7.982,0.005,8.358,0.375l0.149,0.147L38,21.5c0,0.05-0.011,0.23-0.028,0.515c-0.069,1.072-0.251,3.919-0.222,6.855	c0.013,1.274,0.12,2.613,0.216,3.794c0.086,1.062,0.159,1.979,0.159,2.711c0,0.94-0.13,2.123-0.136,2.172	c0.006,0.261-0.126,0.564-0.379,0.819C37.218,38.764,36.569,39,35.875,39z M27.102,37.625L34.151,38l1.724,0	c0.511,0,0.871-0.182,1.025-0.337c0.034-0.035,0.093-0.103,0.092-0.166c0.004-0.071,0.133-1.238,0.133-2.122	c0-0.692-0.075-1.634-0.156-2.63c-0.097-1.198-0.206-2.555-0.219-3.865c-0.029-2.973,0.154-5.847,0.224-6.929	c0.003-0.048,0.006-0.094,0.008-0.135c-1.117-0.181-5.211-0.125-7.497-0.091C28.513,21.738,27.64,21.75,27,21.75	c-0.611,0-1.197,0.064-1.816,0.133c-0.969,0.107-2.066,0.226-3.474,0.116c-2.613-0.21-8.87-0.062-10.689-0.013	c0.06,1.497,0.229,5.902,0.229,7.702c0,1.351-0.093,3.295-0.167,4.857C11.038,35.503,11,36.287,11,36.625C11,37.512,11.355,38,12,38	c0.291,0,0.435-0.021,0.596-0.045c0.24-0.035,0.538-0.08,1.279-0.08c1.243,0,5.102,0.12,5.266,0.125L27.102,37.625z"/><path fill="#010101" d="M10.481,21.374c-0.098,0-0.195-0.029-0.277-0.084c-0.114-0.076-0.192-0.196-0.216-0.332	c0-0.002-0.105-0.618-0.229-1.235c-0.095-0.475-0.527-1.6-0.686-1.993c-0.23-0.809,0.086-1.422,0.924-1.874	c0.204-0.11,1.541-0.496,6.747-1.971c4.864-1.378,10.918-3.093,12.213-3.584c2.284-0.865,4.322-1.168,5.092-1.258	c1.001-0.118,1.897,0.6,2.068,1.625l0.667,2.783c0.032,0.136,0.006,0.28-0.073,0.396c-0.078,0.116-0.203,0.194-0.342,0.214	c-0.013,0.002-1.286,0.2-3.913,1.394c-1.449,0.659-10.179,3.273-12.474,3.783c-2.249,0.5-9.392,2.124-9.392,2.124	C10.556,21.37,10.519,21.374,10.481,21.374z M34.258,10.03c-0.03,0-0.061,0.002-0.092,0.005c-0.732,0.086-2.674,0.375-4.854,1.201	c-1.335,0.506-7.411,2.228-12.294,3.611c-3.086,0.875-6.277,1.779-6.569,1.9c-0.533,0.289-0.476,0.495-0.429,0.66	c0.007,0.01,0.588,1.457,0.721,2.12c0.053,0.263,0.102,0.526,0.142,0.743c1.676-0.38,6.999-1.589,8.885-2.008	c2.179-0.484,10.893-3.087,12.276-3.717c1.813-0.824,3.017-1.196,3.651-1.358l-0.556-2.321C35.055,10.368,34.68,10.03,34.258,10.03z"/></svg>