<svg xmlns="http://www.w3.org/2000/svg"  viewBox="0 0 48 48" width="50px" height="50px"><path fill="#d6e5e5" d="M3.971,10.01c0,5-0.164,3.146-0.16,7.645c0.004,3.752,0.348,5.49,0.195,8.18	c-0.127,2.228-0.077,3.598-0.123,5.83c-0.078,3.752-1.059,9.32,1.738,11.482c1.768,1.367,4.792,1.236,6.964,1.344	c2.172,0.108,5.738-0.378,7.907-0.222c6.082,0.439,6.14-0.475,11.774-0.246c2.056,0.083,8.6,0.275,10.205-1.013	c1.545-1.24,2.06-3.227,2.017-6.598c-0.057-4.447-0.134-7.87-0.111-12.317c0.009-1.699,0.098-3.553,0.106-5.253	c0.007-1.371-0.257-4.528-0.279-5.899c-0.02-1.275-0.435-6.118-1.95-7.447c-3.208-2.814-10.432-2.143-10.968-2.16	c-5.172-0.161-12.527,0.35-15.177,0.338c-3.513-0.016-5.052-0.001-7.138,0.335C5.969,4.494,3.779,6.101,3.971,10.01"/><path fill="#010101" d="M13.279,45.007c-0.252,0-0.493-0.005-0.719-0.017c-0.316-0.016-0.651-0.025-0.998-0.037	c-2.054-0.064-4.61-0.145-6.247-1.41c-2.497-1.931-2.252-6.064-2.036-9.712c0.046-0.765,0.09-1.5,0.104-2.177	c0.016-0.766,0.021-1.431,0.024-2.063c0.008-1.188,0.016-2.312,0.1-3.784c0.083-1.45,0.018-2.636-0.059-4.008	c-0.063-1.144-0.135-2.439-0.137-4.143C3.31,15.44,3.348,14.76,3.388,14.039c0.041-0.731,0.084-1.486,0.084-4.017	c-0.18-3.709,1.645-5.897,5.42-6.506c2.166-0.35,3.779-0.354,7.22-0.342c0.982-0.011,2.546-0.061,4.393-0.136	c3.335-0.136,7.485-0.309,10.798-0.202c0.049,0.001,0.168-0.004,0.339-0.012c5.259-0.241,8.938,0.536,10.944,2.296	c1.939,1.701,2.118,7.754,2.119,7.814c0.01,0.612,0.068,1.585,0.13,2.593c0.075,1.252,0.153,2.547,0.149,3.316	c-0.005,0.853-0.029,1.745-0.054,2.638c-0.024,0.884-0.049,1.769-0.053,2.615c-0.018,3.391,0.022,6.129,0.069,9.299l0.042,3.009	c0.047,3.675-0.592,5.701-2.204,6.994c-1.518,1.22-6.568,1.283-10.538,1.124c-2.581-0.107-3.983,0.034-5.339,0.169	c-1.623,0.162-3.156,0.314-6.451,0.076c-1.101-0.081-2.617,0.014-4.083,0.104C15.309,44.939,14.216,45.007,13.279,45.007z M14.611,4.171c-2.409,0-3.807,0.05-5.561,0.332c-3.238,0.522-4.736,2.316-4.58,5.482l0.001,0.024c0,2.568-0.043,3.34-0.085,4.086	c-0.04,0.706-0.077,1.372-0.075,3.559c0.002,1.677,0.072,2.959,0.135,4.089c0.078,1.403,0.146,2.614,0.059,4.12	c-0.082,1.448-0.09,2.508-0.098,3.734c-0.004,0.637-0.009,1.306-0.024,2.078c-0.015,0.688-0.059,1.437-0.104,2.214	c-0.202,3.4-0.431,7.255,1.648,8.862c1.381,1.067,3.758,1.142,5.667,1.202c0.353,0.011,0.693,0.021,1.016,0.038	c1.008,0.047,2.378-0.035,3.702-0.117c1.499-0.093,3.05-0.188,4.217-0.104c3.212,0.233,4.701,0.084,6.28-0.073	c1.388-0.139,2.821-0.282,5.479-0.174c5.214,0.214,8.904-0.128,9.871-0.903c1.343-1.077,1.872-2.873,1.83-6.201l-0.042-3.008	c-0.047-3.176-0.087-5.918-0.069-9.319c0.005-0.853,0.029-1.745,0.054-2.638c0.024-0.884,0.049-1.769,0.053-2.615	c0.004-0.736-0.073-2.015-0.147-3.25c-0.062-1.025-0.121-2.015-0.132-2.638c-0.022-1.493-0.487-5.945-1.779-7.078	c-1.24-1.09-4.023-2.334-10.239-2.049c-0.209,0.009-0.346,0.013-0.415,0.013c-3.275-0.103-7.406,0.065-10.726,0.201	c-1.861,0.076-3.505,0.137-4.438,0.137C15.565,4.173,15.07,4.171,14.611,4.171z"/><path fill="#8a4581" d="M9.991,20.704c0.091,3.061-0.672,7.556-0.406,11.045c0.086,1.131-0.083,2.272,0.003,3.403	c0.011,0.138,0.026,0.288,0.122,0.389c0.092,0.096,0.233,0.122,0.365,0.141c1.418,0.208,3.105,0.306,4.538,0.312	c0.055-2.325,0.109-4.65,0.164-6.975c0.009-0.38,0.02-0.77,0.165-1.121c0.126-0.307,0.347-0.564,0.567-0.812	c0.612-0.69,1.251-1.356,1.914-1.995c0.863,1.177,1.304,2.603,1.731,4c0.641,2.097,1.281,4.195,1.922,6.292	c0.038,0.125,0.081,0.257,0.18,0.343c0.118,0.102,0.287,0.113,0.443,0.119c1.242,0.05,2.484,0.1,3.726,0.15	c0.002-0.862-0.464-2.737-0.838-4.168c-0.693-2.658-1.088-3.599-1.769-6.26c-0.262-1.022-0.653-2.012-0.856-3.047	c-0.037-0.189-0.067-0.386-0.012-0.571c0.049-0.164,0.16-0.3,0.269-0.432c1.924-2.325,3.848-4.651,5.773-6.976	c-1.137-0.615-2.274-1.229-3.41-1.844c-0.105-0.057-0.216-0.115-0.335-0.118c-0.126-0.003-0.259,0.035-0.357,0.115	c-2.321,1.897-3.69,3.25-5.499,5.168c-0.867,0.919-2.41,2.806-3.27,3.731c-0.131-3.262,0.115-7.588,0.413-10.839	c-1.808,0.216-3.605,0.524-5.382,0.922c-0.171,3.005-0.22,6.017-0.147,9.026"/><path fill="#8a4581" d="M32.284,36.111c-0.266,0.493-0.533,0.986-0.799,1.479c0.792,0.345,1.532,0.809,2.189,1.37	c0.074,0.063,0.157,0.131,0.254,0.128c0.063-0.002,0.12-0.035,0.174-0.067c0.857-0.503,1.715-1.007,2.572-1.51	c-0.293-0.805-0.52-1.633-0.679-2.475c-0.846-0.099-1.692-0.198-2.537-0.297c-0.061-0.007-0.125-0.014-0.182,0.009	c-0.056,0.022-0.097,0.07-0.134,0.117c-0.146,0.188-0.761,1.051-0.84,1.276"/><path fill="#8a4581" d="M31.272,17.746c0.921,4.923,2.046,9.808,3.373,14.637c0.132-4.643,1.553-8.481,2.401-13.063	c0.603-3.261,1.373-5.849,2.032-8.467c0.027-0.108,0.053-0.225,0.008-0.326c-0.067-0.148-0.251-0.194-0.411-0.223	c-3.001-0.539-5.943-1.4-8.761-2.563c0.454,3.395,0.905,6.599,1.36,9.994"/><path fill="#010101" d="M14.612,36.494c-0.001,0-0.002,0-0.002,0c-1.604-0.008-3.284-0.123-4.608-0.317	c-0.154-0.023-0.44-0.065-0.655-0.292c-0.222-0.23-0.245-0.532-0.257-0.694c-0.046-0.595-0.024-1.187-0.004-1.758	c0.021-0.57,0.04-1.108-0.001-1.646c-0.151-1.995,0.023-4.269,0.192-6.467c0.13-1.688,0.253-3.284,0.213-4.602	c-0.001-0.036,0.002-0.072,0.009-0.106c-0.07-2.97-0.02-5.985,0.15-8.965c0.013-0.223,0.172-0.411,0.39-0.46	c1.79-0.401,3.618-0.715,5.432-0.931c0.158-0.023,0.301,0.033,0.408,0.138c0.108,0.105,0.163,0.254,0.149,0.404	c-0.314,3.432-0.473,6.877-0.442,9.514c0.232-0.269,0.478-0.555,0.725-0.843c0.627-0.732,1.262-1.472,1.713-1.951	c1.854-1.965,3.221-3.31,5.548-5.212c0.187-0.152,0.438-0.232,0.685-0.229c0.244,0.006,0.436,0.111,0.562,0.181l3.41,1.843	c0.131,0.071,0.224,0.197,0.253,0.344c0.028,0.147-0.011,0.299-0.106,0.414l-5.773,6.976c-0.071,0.088-0.153,0.188-0.175,0.257	c-0.024,0.084,0.007,0.245,0.023,0.331c0.115,0.585,0.292,1.15,0.479,1.75c0.132,0.421,0.263,0.843,0.372,1.27	c0.348,1.358,0.615,2.246,0.897,3.188c0.265,0.88,0.532,1.771,0.871,3.07c0.424,1.625,0.856,3.406,0.854,4.295	c0,0.136-0.056,0.266-0.154,0.36c-0.098,0.094-0.231,0.142-0.366,0.139l-3.726-0.149c-0.187-0.009-0.495-0.022-0.749-0.24	c-0.213-0.186-0.287-0.43-0.332-0.576l-1.922-6.292c-0.353-1.154-0.715-2.342-1.334-3.366c-0.505,0.505-0.994,1.023-1.459,1.548	c-0.207,0.233-0.386,0.445-0.478,0.67c-0.112,0.271-0.12,0.612-0.128,0.942l-0.164,6.976C15.105,36.277,14.884,36.494,14.612,36.494	z M10.092,35.178c0.022,0.005,0.045,0.008,0.056,0.01c1.146,0.168,2.571,0.275,3.977,0.301l0.152-6.481	c0.01-0.402,0.02-0.858,0.203-1.301c0.163-0.397,0.447-0.718,0.654-0.951c0.612-0.69,1.265-1.372,1.94-2.024	c0.104-0.101,0.246-0.148,0.39-0.139c0.145,0.012,0.276,0.086,0.361,0.202c0.923,1.26,1.393,2.795,1.807,4.149l1.922,6.293	c0.01,0.033,0.032,0.108,0.047,0.131c-0.018-0.028,0.079-0.022,0.119-0.022l3.163,0.127c-0.135-1.042-0.574-2.727-0.78-3.52	c-0.335-1.284-0.601-2.165-0.861-3.035c-0.273-0.908-0.557-1.849-0.909-3.227c-0.105-0.41-0.231-0.815-0.357-1.22	c-0.187-0.599-0.38-1.217-0.505-1.854c-0.051-0.255-0.085-0.53,0-0.812c0.078-0.261,0.241-0.459,0.361-0.604l5.386-6.508	l-2.875-1.555c-0.034-0.019-0.101-0.055-0.125-0.061c-2.298,1.872-3.642,3.195-5.466,5.128c-0.443,0.471-1.065,1.197-1.682,1.916	c-0.586,0.685-1.166,1.361-1.586,1.812c-0.139,0.148-0.353,0.198-0.54,0.128c-0.189-0.07-0.317-0.247-0.326-0.448	c-0.105-2.637,0.029-6.442,0.36-10.286c-1.454,0.191-2.913,0.444-4.351,0.756c-0.153,2.863-0.195,5.757-0.126,8.607	c0.001,0.035-0.002,0.069-0.008,0.103c0.032,1.349-0.09,2.932-0.219,4.604c-0.166,2.161-0.338,4.396-0.191,6.314	c0.045,0.594,0.023,1.186,0.003,1.757c-0.021,0.57-0.04,1.108,0.001,1.646C10.088,35.129,10.09,35.153,10.092,35.178z"/><path fill="#010101" d="M33.928,39.589c-0.285,0-0.48-0.165-0.576-0.245c-0.624-0.534-1.318-0.969-2.065-1.295	c-0.129-0.056-0.228-0.162-0.273-0.295c-0.046-0.132-0.034-0.277,0.033-0.4l0.798-1.479c0.026-0.048,0.06-0.091,0.097-0.126	c0.255-0.452,0.802-1.183,0.809-1.19c0.048-0.062,0.157-0.199,0.34-0.273c0.178-0.07,0.338-0.051,0.425-0.042l2.539,0.297	c0.218,0.025,0.393,0.189,0.434,0.404c0.153,0.812,0.375,1.619,0.658,2.396c0.083,0.227-0.009,0.479-0.217,0.602l-2.572,1.511	c-0.074,0.045-0.215,0.128-0.404,0.136C33.943,39.589,33.936,39.589,33.928,39.589z M32.176,37.363	c0.642,0.325,1.242,0.725,1.792,1.191l2.1-1.267c-0.197-0.589-0.361-1.19-0.491-1.798l-2.094-0.245	c-0.226,0.303-0.65,0.924-0.712,1.07c-0.029,0.068-0.071,0.129-0.124,0.178L32.176,37.363z"/><path fill="#010101" d="M34.646,32.883c-0.223,0-0.422-0.148-0.482-0.367c-1.323-4.815-2.461-9.753-3.382-14.678	c-0.005-0.025-0.008-0.051-0.009-0.076c-0.225-1.683-0.449-3.319-0.674-4.956c-0.227-1.65-0.453-3.301-0.68-4.998	c-0.024-0.177,0.049-0.354,0.19-0.463s0.33-0.133,0.495-0.065c2.786,1.148,5.7,2.001,8.66,2.532	c0.162,0.029,0.597,0.106,0.777,0.511c0.12,0.265,0.056,0.518,0.021,0.653c-0.169,0.672-0.346,1.343-0.525,2.023	c-0.518,1.969-1.054,4.005-1.5,6.411c-0.287,1.556-0.642,3.032-0.985,4.46c-0.68,2.828-1.321,5.499-1.406,8.526	c-0.007,0.248-0.194,0.453-0.44,0.482C34.686,32.882,34.665,32.883,34.646,32.883z M31.772,17.698	c0.737,3.938,1.614,7.885,2.614,11.77c0.27-1.989,0.723-3.873,1.193-5.831c0.34-1.415,0.691-2.879,0.975-4.408	c0.452-2.443,0.993-4.497,1.516-6.483c0.173-0.656,0.344-1.303,0.507-1.951c-2.744-0.494-5.449-1.256-8.054-2.27	c0.189,1.399,0.377,2.772,0.565,4.146c0.227,1.65,0.453,3.301,0.68,4.998C31.771,17.678,31.771,17.688,31.772,17.698z"/></svg>