<svg xmlns="http://www.w3.org/2000/svg"  viewBox="0 0 512 512" width="50px" height="50px"><path fill="#FEBF10" d="M65 149.3H359.1V374.3H65z"/><path fill="#D6E5E5" d="M71.8 282.2c-6.6 8.4-9 21.2-4.3 31.1 1.9 4.1 5 7.3 8.6 10v-45.8C74.6 279 73.1 280.5 71.8 282.2zM101.7 265.8c-3.6.8-7.1 1.8-10.6 3.1v63c.1 0 .2.1.2.1.3-.1.7-.1 1.1-.1 4.9 0 9.8 0 14.7 0v-67.3C105.3 264.9 103.5 265.3 101.7 265.8zM130.3 253c-2.8 3-5.9 5.2-9.1 6.8v71.9c6.7 0 13.3-.1 20-.2v-93.9C137.9 243.2 134.5 248.5 130.3 253zM155.1 216.6v114.9c6.3-.1 12.7-.2 19-.3V202.5C167 206 160.6 210.4 155.1 216.6zM187.2 197.2C187.2 197.2 187.1 197.2 187.2 197.2l-.1 133.7c5.7-.1 11.3-.2 17-.3V193.5C198.5 194.1 192.9 195.3 187.2 197.2zM228.7 194.1c-2.6-.4-5.1-.7-7.6-.9v137c8-.2 16-.3 24-.5V195.7C239.8 195.6 234.4 195 228.7 194.1zM269.4 192.2c-6.2 2.2-12.2 3.2-18.2 3.5v134c9.8-.2 19.5-.4 29.3-.7.9 0 1.8-.1 2.7-.1V186.3C278.6 188.4 274.1 190.5 269.4 192.2zM453.8 272.2c-10.2-14.9-31.9-18.6-48.6-16.4-2.7.4-6-2.2-5.9-5.1.8-26.3-12.8-50.6-36-63.3-14.4-7.9-31.4-11.9-47.9-10.6-8.7.7-16.9 2.8-25 6.2-1.8.8-3.6 1.6-5.4 2.4v143.4c14.5-.5 29-1.5 43.5-2.2 15.4-.8 31-2.4 46.4-2.2 19.4.2 40.9 2.3 59.1-5.7C449.9 311.8 465.1 288.8 453.8 272.2z"/><path fill="#FEBF10" d="M479.3,176.8c-16.1-46.6-46.7-87.1-91.3-109.6c-50.9-25.7-111-28.1-166.4-19.3C171.8,55.8,119.3,73.8,82,109c-19.6,18.5-34.7,40.9-42.7,66.8c-8,26-10.4,53.1-12.1,80.1c-0.1,1.1-0.4,2-1,2.7c0,0.2,0.1,0.5,0.1,0.8c0,52.9-1.1,108.3,30.1,153.9c25.3,37.1,64.5,61.5,107.2,73.7c88,25.2,194.2,9.6,264.9-50.8C502.7,372.9,509.5,263.9,479.3,176.8z M440.9,327.6c-18.3,9-39.8,8.2-59.6,7.8c-14.1-0.2-28.2,1-42.3,1.7c-16,0.8-32,1.6-47.9,2.4c-32.9,1.7-66,1.7-98.9,2.3c-33,0.6-66,1-99,1c-0.6,0-1.2-0.1-1.7-0.2c-1.2,0.5-2.6,0.4-4.2-0.3c-14.3-7.1-29.8-15.7-32.5-33.1c-2.6-16.7,3.7-32.5,17.3-42.6c7.3-5.4,15.7-9,24.5-11c7-1.6,15.5-2.2,21.5-6.6c7.4-5.3,11.6-14.9,16.3-22.4c5.1-8.2,10.5-16.5,17.7-23c20.1-18.3,50.7-24.4,76.9-20.6c7.3,1,14.7,2.5,22.1,1.9c6.7-0.5,12.9-2.4,19-5c13.3-5.7,25.9-12.3,40.6-13.8c26.2-2.7,54.4,5,73.9,23.2c15.5,14.5,24.8,33.9,25.6,54.9c19.7-1,44,5.5,53.7,23.4C475.8,289.6,461.9,317.3,440.9,327.6z"/><path d="M493,183.7c-14.2-46.9-40.9-88.3-82-115.7c-46.4-31-105.3-38.4-159.8-34.4c-51.7,3.8-104.6,17.9-148.6,46c-21.6,13.8-40.9,31.9-55,53.4c-14.9,22.7-22.5,48.8-26.6,75.4c-2.3,15.1-3.4,30.3-4.4,45.6c-0.1,0.9,0.1,1.8,0.4,2.6c-0.9,0.9-1.5,2.2-1.5,3.8c0,30.1-0.6,60.4,4.6,90.2c4.8,27.1,15.2,52.9,31.6,75.1c29.2,39.5,73.5,63.3,120.4,75c88.9,22.2,194.2,3.7,264.5-57.1C510.7,379.5,519.8,272.6,493,183.7z M428.6,436.2c-70.8,60.4-176.9,76-264.9,50.8c-42.7-12.2-81.9-36.6-107.2-73.7c-31.1-45.6-30.1-101-30.1-153.9c0-0.3,0-0.5-0.1-0.8c0.5-0.7,0.9-1.6,1-2.7c1.7-27,4.1-54.1,12.1-80.1c7.9-25.9,23.1-48.3,42.7-66.8c37.3-35.2,89.8-53.2,139.6-61.1c55.5-8.8,115.5-6.4,166.4,19.3c44.6,22.5,75.1,63.1,91.3,109.6C509.5,263.9,502.7,372.9,428.6,436.2z"/><path d="M96.7 255.7c-1.9.4-3.7.9-5.5 1.5v11.7c3.4-1.3 7-2.3 10.6-3.1 1.8-.4 3.7-.8 5.4-1.2v-10.9C103.6 254.4 100 254.9 96.7 255.7zM134.5 226.7c-4 6.5-7.7 14.5-13.4 19.9v13.2c3.3-1.7 6.3-3.8 9.1-6.8 4.2-4.5 7.6-9.9 10.9-15.3v-21.1C138.8 219.9 136.6 223.3 134.5 226.7zM121.1 331.8v11c6.7 0 13.3-.1 20-.2v-11C134.5 331.7 127.8 331.7 121.1 331.8zM155.1 201.2v15.4c5.5-6.1 11.9-10.6 19-14.1v-12.6C167.3 192.8 160.8 196.5 155.1 201.2zM187.1 330.9v11c1.7 0 3.4 0 5.1-.1 4-.1 7.9-.1 11.9-.2v-11C198.5 330.7 192.8 330.8 187.1 330.9zM187.1 185.4v11.8c0 0 0 0 .1 0 5.7-1.9 11.3-3.1 16.9-3.7v-11C198.4 183 192.7 184 187.1 185.4zM229.1 183.1c-2.6-.4-5.3-.7-8-.8v11c2.5.2 5 .5 7.6.9 5.6.8 11 1.4 16.4 1.6v-10.6C239.8 184.8 234.4 183.9 229.1 183.1zM221.1 330.3v11.1c8-.1 16-.2 24-.4v-11.3C237.1 329.9 229.1 330.1 221.1 330.3zM270.3 180c-6.1 2.6-12.4 4.5-19 5 0 0-.1 0-.1 0v10.6c6-.3 12.1-1.3 18.2-3.5 4.7-1.7 9.2-3.8 13.8-5.9v-11.9C278.8 176.2 274.6 178.2 270.3 180zM280.4 329c-9.8.2-19.5.5-29.3.7v11.3c10.7-.2 21.3-.5 32-1v-11C282.2 328.9 281.3 328.9 280.4 329zM464 267.8c-9.7-18-34-24.4-53.7-23.4-.8-21-10.1-40.5-25.6-54.9-19.5-18.2-47.7-25.9-73.9-23.2-9.1.9-17.5 3.9-25.7 7.3v11.9c1.8-.8 3.6-1.6 5.4-2.4 8-3.4 16.3-5.5 25-6.2 16.4-1.3 33.5 2.7 47.9 10.6 23.2 12.8 36.8 37 36 63.3-.1 2.9 3.2 5.4 5.9 5.1 16.7-2.2 38.4 1.5 48.6 16.4 11.3 16.6-3.9 39.5-19.7 46.4-18.3 8-39.7 5.9-59.1 5.7-15.4-.1-31 1.5-46.4 2.2-14.5.7-29 1.7-43.5 2.2v11c2-.1 4-.2 6-.3 16-.8 32-1.6 47.9-2.4 14.1-.7 28.2-1.9 42.3-1.7 19.8.3 41.3 1.2 59.6-7.8C461.9 317.3 475.8 289.6 464 267.8zM155.1 331.4v11c6.3-.1 12.7-.2 19-.3v-11C167.8 331.2 161.5 331.3 155.1 331.4zM92.4 331.9c-.4 0-.7 0-1.1.1-.1 0-.2-.1-.2-.1v10.9c.1 0 .3-.1.4-.1.5.2 1.1.2 1.7.2 4.6 0 9.2 0 13.9 0v-11C102.2 331.8 97.3 331.9 92.4 331.9zM76.1 277.5V264c-1.3.8-2.6 1.7-3.9 2.6-13.7 10.1-20 25.9-17.3 42.6 2 12.8 11 20.8 21.3 27v-12.9c-3.6-2.7-6.7-5.9-8.6-10-4.7-10-2.3-22.7 4.3-31.1C73.1 280.5 74.6 278.9 76.1 277.5z"/></svg>