<svg xmlns="http://www.w3.org/2000/svg"  viewBox="0 0 48 48" width="50px" height="50px"><path fill="#4b7bb2" d="M4.969,24.137c-0.055-3.502-0.149-6.271-0.307-9.77c-0.046-1.008-0.091-2.028,0.107-3.018 c0.565-2.833,3.068-4.957,5.792-5.891s5.671-0.89,8.55-0.837c5.666,0.106,11.332,0.212,16.998,0.318 c0.858,0.016,1.729,0.034,2.548,0.288c1.644,0.509,2.889,1.929,3.572,3.514s0.879,3.333,1.006,5.055 c0.568,7.69-0.075,15.412-0.718,23.095c-0.074,0.88-0.158,1.796-0.612,2.553c-0.365,0.61-0.941,1.062-1.537,1.448 c-4.165,2.694-9.474,2.584-14.425,2.382c-4.703-0.192-9.407-0.384-14.11-0.576c-1.989-0.081-4.227-0.281-5.493-1.822 c-0.913-1.111-1.07-2.645-1.17-4.082C4.861,32.342,5.039,28.601,4.969,24.137z"/><path fill="#010101" d="M5.469,24.137c-0.035-2.216-0.092-4.431-0.176-6.645c-0.042-1.119-0.094-2.238-0.142-3.357 c-0.048-1.125-0.07-2.261,0.28-3.345c1.286-3.98,5.829-5.408,9.573-5.634c2.307-0.139,4.63-0.023,6.939,0.02 c2.422,0.045,4.845,0.091,7.267,0.136c2.416,0.045,4.833,0.074,7.249,0.137c1.098,0.029,2.156,0.152,3.1,0.754 c0.813,0.518,1.448,1.289,1.911,2.127c1.077,1.949,1.2,4.287,1.332,6.462c0.15,2.48,0.18,4.967,0.13,7.451 c-0.098,4.853-0.497,9.693-0.904,14.528c-0.092,1.092-0.196,2.188-1.018,2.998c-0.696,0.686-1.626,1.174-2.506,1.579 c-1.871,0.86-3.94,1.252-5.982,1.415c-4.433,0.355-8.952-0.082-13.386-0.263c-2.434-0.099-4.869-0.193-7.303-0.298 c-1.733-0.075-3.868-0.174-5.081-1.607c-0.656-0.775-0.887-1.824-0.998-2.808c-0.127-1.127-0.171-2.266-0.212-3.399 c-0.082-2.26-0.064-4.521-0.058-6.781C5.489,26.448,5.486,25.292,5.469,24.137c-0.009-0.643-1.009-0.645-1,0 c0.036,2.491-0.005,4.982,0.016,7.473c0.02,2.34-0.026,4.787,0.403,7.095c0.364,1.961,1.533,3.403,3.449,4.012 c2.08,0.662,4.438,0.52,6.591,0.608c4.984,0.203,9.994,0.576,14.983,0.541c2.178-0.016,4.382-0.177,6.496-0.729 c1.89-0.494,4.091-1.332,5.445-2.802c0.706-0.767,0.975-1.713,1.097-2.728c0.151-1.265,0.223-2.545,0.325-3.815 c0.21-2.605,0.402-5.213,0.528-7.824c0.128-2.648,0.188-5.3,0.131-7.951c-0.053-2.479-0.09-5.051-0.618-7.483 c-0.426-1.961-1.36-3.85-3.024-5.041c-1.922-1.376-4.534-1.058-6.769-1.1c-5.183-0.097-10.367-0.228-15.551-0.288 C13.757,4.054,9.059,4.432,6.066,7.792c-1.4,1.571-1.972,3.44-1.941,5.526c0.036,2.379,0.2,4.76,0.266,7.139 c0.034,1.227,0.059,2.453,0.079,3.68C4.479,24.779,5.479,24.781,5.469,24.137z"/><path fill="#febf10" d="M22.045,13.29c0.166,1.444,0.116,2.546,0.104,3.998c-0.007,0.789,0.09,1.748,0.832,2.088 c0.637,0.292,1.43-0.092,1.804-0.666c0.374-0.574,0.435-1.28,0.486-1.955c0.104-1.371,0.207-2.741,0.311-4.112 c0.043-0.574,0.086-1.159-0.061-1.717c-0.147-0.558-0.519-1.093-1.08-1.296c-0.816-0.296-1.77,0.23-2.157,0.981 C21.896,11.361,21.95,12.457,22.045,13.29z"/><path fill="#febf10" d="M29.48,19.022c1.239-0.931,2.118-1.877,3.302-2.831c0.638-0.515,1.383-1.06,2.193-0.935 c0.85,0.131,1.415,0.961,1.686,1.776c0.083,0.249,0.149,0.509,0.127,0.77c-0.065,0.773-0.834,1.262-1.517,1.629 c-1.83,0.981-3.674,1.968-5.657,2.583c-0.388,0.12-0.827,0.221-1.183,0.028c-0.636-0.346-0.512-1.324-0.096-1.916 C28.683,19.628,28.995,19.386,29.48,19.022z"/><path fill="#febf10" d="M22.224,31.973c-0.109,1.553-0.122,2.948-0.291,4.495c-0.066,0.608-0.094,1.324,0.354,1.717 c0.167,0.146,0.379,0.224,0.593,0.263c0.876,0.161,1.825-0.342,2.219-1.176c0.19-0.402,0.256-0.855,0.287-1.302 c0.119-1.711-0.239-3.416-0.623-5.084c-0.163-0.706-0.479-1.555-1.171-1.625c-0.46-0.047-0.886,0.315-1.084,0.752 C22.311,30.449,22.258,31.491,22.224,31.973z"/><path fill="#febf10" d="M29.305,28.729c1.206,0.704,2.388,1.458,3.456,2.357c0.471,0.397,0.931,0.828,1.501,1.063 c0.569,0.235,1.29,0.226,1.733-0.202c0.496-0.48,0.464-1.321,0.115-1.916s-0.938-1.003-1.509-1.391 c-0.882-0.599-1.764-1.199-2.645-1.798c-0.661-0.449-1.364-0.914-2.161-0.969c-0.797-0.056-1.694,0.471-1.741,1.269 c-0.051,0.883,0.87,1.479,1.688,1.816"/><path fill="#febf10" d="M15.092,27.007c-0.673,0.357-1.427,0.803-2.1,1.158c-0.848,0.448-1.819,1.098-1.795,2.078 c0.019,0.797,0.776,1.425,1.548,1.497c0.772,0.072,1.524-0.291,2.152-0.759c0.627-0.468,1.172-1.047,1.808-1.503 c0.558-0.4,1.181-0.701,1.718-1.132s0.997-1.034,1.043-1.732c0.007-0.109,0.004-0.222-0.034-0.325 c-0.113-0.31-0.48-0.425-0.8-0.451C17.413,25.745,16.177,26.432,15.092,27.007z"/><path fill="#febf10" d="M14.844,20.798c-1.049-0.48-2.074-1.094-3.088-1.65c-0.438-0.24-0.905-0.511-1.112-0.975 c-0.272-0.607,0.033-1.375,0.576-1.744c0.543-0.368,1.254-0.39,1.881-0.213s1.191,0.531,1.745,0.882 c0.749,0.473,1.497,0.947,2.246,1.42c0.886,0.56,1.884,1.326,1.835,2.393c-0.019,0.416-0.255,0.853-0.648,0.955 c-0.271,0.07-0.552-0.029-0.814-0.127C16.607,21.419,15.677,21.179,14.844,20.798z"/><path fill="#010101" d="M23.956,9.546c0.163,0,0.327,0.027,0.485,0.084c0.561,0.204,0.933,0.739,1.08,1.296 c0.147,0.558,0.105,1.143,0.061,1.717c-0.104,1.371-0.207,2.741-0.311,4.112c-0.051,0.675-0.112,1.381-0.486,1.955 c-0.286,0.439-0.816,0.766-1.335,0.766c-0.16,0-0.319-0.031-0.469-0.1c-0.742-0.34-0.839-1.299-0.832-2.088 c0.013-1.452,0.062-2.554-0.104-3.998c-0.096-0.832-0.149-1.929,0.238-2.679C22.596,10.006,23.276,9.546,23.956,9.546 M23.956,8.546c-1.036,0-2.065,0.645-2.561,1.606c-0.525,1.017-0.447,2.343-0.343,3.252c0.132,1.152,0.12,2.058,0.105,3.205 l-0.008,0.67c-0.005,0.581-0.021,2.347,1.415,3.006c0.277,0.127,0.575,0.191,0.886,0.191c0.837,0,1.69-0.479,2.173-1.22 c0.522-0.802,0.59-1.702,0.645-2.425l0.311-4.112c0.047-0.619,0.1-1.321-0.092-2.047c-0.249-0.943-0.887-1.684-1.706-1.981 C24.519,8.595,24.241,8.546,23.956,8.546L23.956,8.546z"/><path fill="#010101" d="M34.739,15.237c0.078,0,0.157,0.006,0.237,0.018c0.85,0.131,1.415,0.961,1.686,1.776 c0.083,0.249,0.149,0.509,0.127,0.77c-0.065,0.773-0.834,1.262-1.517,1.629c-1.83,0.981-3.674,1.968-5.657,2.583 c-0.231,0.071-0.479,0.136-0.718,0.136c-0.163,0-0.321-0.03-0.465-0.109c-0.636-0.346-0.512-1.324-0.096-1.916 c0.349-0.496,0.661-0.739,1.146-1.103c1.239-0.931,2.118-1.877,3.302-2.831C33.357,15.726,34.02,15.237,34.739,15.237 M34.739,14.237c-1.04,0-1.88,0.606-2.585,1.175c-0.542,0.437-1.021,0.871-1.484,1.29c-0.582,0.528-1.133,1.026-1.791,1.52 c-0.49,0.368-0.912,0.686-1.364,1.327c-0.452,0.643-0.632,1.47-0.471,2.159c0.124,0.531,0.447,0.961,0.907,1.211 c0.281,0.153,0.598,0.23,0.943,0.23c0.379,0,0.725-0.092,1.014-0.181c2.082-0.645,3.989-1.668,5.833-2.656 c0.576-0.309,1.924-1.031,2.041-2.426c0.038-0.456-0.073-0.865-0.174-1.169c-0.453-1.364-1.381-2.28-2.483-2.45 C34.997,14.246,34.867,14.237,34.739,14.237L34.739,14.237z"/><path fill="#010101" d="M23.511,29.256c0.027,0,0.054,0.001,0.081,0.004c0.691,0.071,1.008,0.919,1.171,1.625 c0.384,1.668,0.743,3.373,0.623,5.084c-0.031,0.447-0.097,0.9-0.287,1.302c-0.345,0.73-1.114,1.206-1.888,1.206 c-0.111,0-0.221-0.01-0.331-0.03c-0.214-0.039-0.427-0.117-0.593-0.263c-0.448-0.393-0.42-1.11-0.354-1.717 c0.169-1.547,0.182-2.942,0.291-4.495c0.034-0.482,0.087-1.524,0.284-1.961C22.694,29.601,23.083,29.256,23.511,29.256 M23.511,28.256c-0.793,0-1.545,0.528-1.914,1.344c-0.235,0.52-0.305,1.32-0.361,2.164l-0.009,0.139 c-0.041,0.585-0.069,1.148-0.096,1.705c-0.046,0.931-0.089,1.81-0.192,2.751c-0.059,0.539-0.197,1.801,0.689,2.578 c0.285,0.25,0.646,0.416,1.072,0.495c0.167,0.031,0.339,0.046,0.512,0.046c1.168,0,2.29-0.715,2.792-1.779 c0.275-0.583,0.348-1.193,0.381-1.659c0.127-1.822-0.233-3.583-0.647-5.378c-0.342-1.486-1.029-2.292-2.043-2.396 C23.633,28.259,23.572,28.256,23.511,28.256L23.511,28.256z"/><path fill="#010101" d="M29.678,25.868c0.039,0,0.078,0.001,0.116,0.004c0.797,0.056,1.5,0.52,2.161,0.969 c0.882,0.599,1.764,1.199,2.645,1.798c0.571,0.388,1.16,0.796,1.509,1.391c0.349,0.596,0.381,1.437-0.115,1.916 c-0.257,0.249-0.609,0.356-0.97,0.356c-0.26,0-0.525-0.056-0.763-0.154c-0.569-0.235-1.03-0.667-1.501-1.063 c-1.068-0.899-1.639-1.418-2.89-2.037c-0.793-0.392-1.868-1.026-1.817-1.909C28.098,26.382,28.912,25.868,29.678,25.868 M29.678,24.868c-1.199,0-2.543,0.847-2.623,2.215c-0.095,1.643,1.697,2.529,2.372,2.863c1.046,0.518,1.545,0.939,2.451,1.704 l0.239,0.202l0.182,0.155c0.441,0.377,0.94,0.803,1.581,1.068c0.364,0.15,0.76,0.229,1.144,0.229c0.649,0,1.24-0.226,1.665-0.637 c0.89-0.86,0.816-2.231,0.283-3.141c-0.469-0.802-1.213-1.307-1.81-1.713l-1.323-0.899l-1.323-0.899 c-0.66-0.449-1.565-1.064-2.654-1.14C29.802,24.871,29.74,24.868,29.678,24.868L29.678,24.868z"/><path fill="#010101" d="M18.399,25.832c0.077,0,0.154,0.003,0.231,0.009c0.321,0.025,0.688,0.14,0.8,0.451 c0.037,0.103,0.041,0.215,0.034,0.325c-0.046,0.698-0.506,1.302-1.043,1.732s-1.159,0.732-1.718,1.132 c-0.636,0.456-1.181,1.034-1.808,1.503c-0.574,0.428-1.252,0.768-1.954,0.768c-0.066,0-0.132-0.003-0.198-0.009 c-0.772-0.072-1.529-0.7-1.548-1.497c-0.024-0.98,0.948-1.63,1.795-2.078c0.673-0.356,1.428-0.802,2.1-1.158 C16.108,26.468,17.257,25.832,18.399,25.832 M18.399,24.832c-1.345,0-2.571,0.652-3.653,1.227l-0.123,0.065 c-0.338,0.179-0.696,0.38-1.054,0.582c-0.355,0.199-0.71,0.399-1.044,0.576c-0.648,0.343-2.37,1.253-2.328,2.987 c0.031,1.258,1.109,2.343,2.455,2.469c0.097,0.009,0.194,0.014,0.291,0.014c0.833,0,1.692-0.325,2.552-0.967 c0.331-0.247,0.63-0.512,0.92-0.768c0.298-0.264,0.58-0.513,0.873-0.723c0.221-0.158,0.454-0.299,0.686-0.441 c0.354-0.216,0.72-0.439,1.075-0.724c0.854-0.685,1.356-1.553,1.415-2.446c0.018-0.273-0.012-0.513-0.091-0.732 c-0.232-0.638-0.838-1.042-1.662-1.106C18.605,24.835,18.502,24.832,18.399,24.832L18.399,24.832z"/><path fill="#010101" d="M12.347,16.108c0.254,0,0.511,0.039,0.754,0.107c0.627,0.177,1.191,0.531,1.745,0.882 c0.749,0.473,1.497,0.947,2.246,1.42c0.885,0.56,1.884,1.326,1.835,2.393c-0.019,0.416-0.255,0.853-0.648,0.955 c-0.064,0.016-0.128,0.024-0.192,0.024c-0.21,0-0.422-0.076-0.622-0.15c-0.857-0.319-1.787-0.559-2.62-0.941 c-1.049-0.48-2.074-1.094-3.088-1.65c-0.438-0.24-0.905-0.511-1.112-0.975c-0.272-0.607,0.033-1.375,0.576-1.744 C11.552,16.204,11.947,16.108,12.347,16.108 M12.347,15.108c-0.629,0-1.212,0.171-1.688,0.493c-0.972,0.66-1.379,1.968-0.927,2.979 c0.353,0.79,1.07,1.183,1.544,1.443c0.259,0.142,0.518,0.288,0.778,0.434c0.766,0.43,1.558,0.875,2.374,1.249 c0.573,0.262,1.167,0.457,1.742,0.645c0.319,0.104,0.637,0.208,0.945,0.323c0.29,0.108,0.603,0.213,0.972,0.213 c0.152,0,0.301-0.019,0.443-0.055c0.781-0.202,1.355-0.974,1.396-1.877c0.081-1.779-1.587-2.834-2.299-3.284l-1.123-0.71 l-1.123-0.71c-0.579-0.366-1.235-0.781-2.008-0.999C13.031,15.157,12.686,15.108,12.347,15.108L12.347,15.108z"/></svg>