<svg xmlns="http://www.w3.org/2000/svg"  viewBox="0 0 48 48" width="50px" height="50px"><path fill="#4b7bb2" d="M4.77,25.064c0.091-3.729,0.335-7.05,0.246-10.779c-0.049-2.078-0.144-4.277,0.857-6.098 c1.146-2.084,3.533-3.228,5.888-3.558s4.745,0.019,7.117,0.206c3.403,0.268,6.822,0.199,10.234,0.131 c2.604-0.052,5.209-0.105,7.813-0.157c0.704-0.014,1.418-0.027,2.098,0.151c1.557,0.408,2.715,1.779,3.292,3.281 c0.577,1.502,0.664,3.141,0.745,4.748c0.131,2.607-0.037,5.214,0.094,7.821c0.264,5.232,0.625,10.511-0.233,15.679 c-0.179,1.077-0.219,3.178-0.83,4.083c-0.5,0.74-1.222,1.306-1.991,1.76c-4.202,2.482-9.46,1.75-14.322,1.331 c-4.343-0.373-9.612-0.531-13.963-0.272c-1.721,0.102-3.626,0.201-4.973-0.876c-1.326-1.06-1.664-2.906-1.883-4.589 C4.434,33.889,4.67,29.133,4.77,25.064z"/><path fill="#c0e6ed" d="M32.489,18.951c-0.019-1.156-0.06-2.075-0.422-3.174c-0.362-1.099-1.055-2.129-2.073-2.678 c-1.308-0.705-2.69-0.519-4.172-0.427c-1.381,0.086-2.769,0.073-4.148-0.039c-0.863-0.07-1.73-0.178-2.59-0.083 c-0.86,0.096-1.731,0.421-2.294,1.079c-0.682,0.797-0.797,1.917-0.913,2.959c-0.665,5.976-2.362,11.56-2.864,17.551 c-0.028,0.34-0.034,0.731,0.218,0.961c0.218,0.199,0.547,0.197,0.841,0.185c1.352-0.059,4.318,0.259,4.318,0.259 c0.208-1.947,0.608-4.531,0.962-6.457c0.187-1.016,0.482-2.095,1.445-2.468c0.504-0.196,1.41-0.291,1.949-0.25 c3.451,0.265,6.486-1.197,8.636-3.909c0.399-0.503,0.757-1.053,0.938-1.668C32.495,20.198,32.499,19.569,32.489,18.951z"/><path d="M32.398,44.599c-1.808,0-3.647-0.167-5.463-0.332l-1.199-0.107c-4.724-0.407-9.915-0.507-13.892-0.271 c-1.692,0.102-3.802,0.225-5.314-0.985c-1.47-1.175-1.837-3.154-2.066-4.916c-0.458-3.517-0.343-7.607-0.24-11.216l0.046-1.721l0,0 c0.03-1.216,0.076-2.388,0.121-3.545c0.096-2.422,0.185-4.709,0.126-7.209l-0.006-0.231c-0.052-2.088-0.104-4.248,0.925-6.12 c1.111-2.021,3.392-3.411,6.257-3.813c1.963-0.273,3.947-0.092,5.865,0.083c0.454,0.042,0.907,0.083,1.36,0.119 c3.383,0.266,6.838,0.196,10.185,0.129l7.813-0.157c0.689-0.014,1.479-0.03,2.235,0.167c1.57,0.412,2.928,1.752,3.631,3.585 c0.61,1.589,0.695,3.273,0.777,4.902c0.067,1.318,0.058,2.651,0.048,3.939c-0.009,1.275-0.018,2.593,0.047,3.882l0.059,1.142 c0.249,4.817,0.507,9.799-0.297,14.644c-0.045,0.273-0.081,0.615-0.12,0.986c-0.126,1.183-0.268,2.523-0.789,3.295 c-0.483,0.715-1.187,1.34-2.15,1.911C37.926,44.197,35.201,44.599,32.398,44.599z M16.479,42.764c3.01,0,6.275,0.136,9.343,0.4 l1.203,0.107c4.478,0.406,9.104,0.826,12.822-1.371c0.833-0.493,1.433-1.02,1.831-1.609c0.382-0.565,0.521-1.88,0.622-2.841 c0.042-0.393,0.081-0.754,0.129-1.044c0.786-4.738,0.531-9.664,0.285-14.429l-0.059-1.143c-0.067-1.318-0.058-2.651-0.048-3.939 c0.009-1.275,0.018-2.593-0.047-3.882c-0.078-1.55-0.159-3.153-0.713-4.594c-0.589-1.534-1.691-2.646-2.951-2.976 c-0.619-0.163-1.3-0.148-1.962-0.135l-7.813,0.157c-3.368,0.068-6.85,0.138-10.282-0.132c-0.457-0.036-0.915-0.078-1.373-0.12 c-1.863-0.171-3.789-0.35-5.636-0.089C9.318,5.476,7.256,6.711,6.313,8.428c-0.9,1.636-0.85,3.658-0.802,5.613l0.006,0.232 c0.06,2.532-0.031,4.834-0.126,7.272c-0.046,1.152-0.092,2.32-0.121,3.531l-0.047,1.725c-0.101,3.572-0.216,7.62,0.233,11.059 c0.203,1.568,0.52,3.32,1.699,4.263c1.213,0.971,3.025,0.862,4.631,0.768C13.22,42.806,14.811,42.764,16.479,42.764z"/><path fill="#73a1b2" d="M35.1,22.245c-0.109-1.165-1.549-2.804-2.611-3.294l-3.245-1.042l-6.782,0.325l-1.081,0.717 l-1.758,8.755l-1.233,7.837c-0.162,0.56-0.287,1.131-0.373,1.708c-0.016,0.108-0.03,0.223,0.012,0.323 c0.089,0.209,0.361,0.252,0.589,0.264c1.657,0.086,3.316,0.13,4.975,0.13c0.259-1.673,0.517-3.345,0.776-5.018 c0.091-0.59,0.219-1.242,0.701-1.594c0.395-0.289,0.922-0.293,1.412-0.306c1.11-0.028,2.218-0.156,3.3-0.402 c0.982-0.223,1.975-0.562,2.717-1.242c1.012-0.928,1.911-2.335,2.257-3.664C35.052,24.611,35.208,23.409,35.1,22.245z"/><path fill="#d6e5e5" d="M30.199,18.163c-2.469-0.347-4.988-0.339-7.456,0.023c-0.435,0.064-0.906,0.159-1.193,0.492 c-0.217,0.251-0.289,0.594-0.352,0.92c-0.514,2.625-1.06,5.483-1.574,8.108l1.291-1.315l4.797-0.234l3.632-1.576l2.755-3 l0.502-2.53C31.958,18.469,31.057,18.283,30.199,18.163z"/><path d="M35.598,22.199c-0.118-1.265-1.46-2.865-2.617-3.543c-0.023-1.047-0.088-1.971-0.438-3.036 c-0.443-1.345-1.265-2.397-2.312-2.961c-1.3-0.701-2.666-0.607-3.991-0.516l-0.449,0.03c-1.354,0.083-2.726,0.07-4.077-0.039 L21.312,12.1c-0.741-0.065-1.509-0.133-2.284-0.047c-1.104,0.123-2.033,0.567-2.618,1.251c-0.771,0.901-0.906,2.112-1.03,3.229 c-0.307,2.757-0.846,5.483-1.366,8.12c-0.604,3.054-1.228,6.211-1.498,9.445c-0.026,0.31-0.08,0.954,0.379,1.371 c0.383,0.349,0.892,0.329,1.2,0.315c0.951-0.046,2.75,0.109,3.669,0.198c-0.095,0.395-0.18,0.793-0.24,1.193 c-0.02,0.125-0.055,0.357,0.046,0.593c0.147,0.351,0.491,0.542,1.022,0.57c1.658,0.086,3.341,0.13,5.002,0.131 c0.247,0,0.456-0.18,0.494-0.423l0.775-5.018c0.08-0.514,0.185-1.036,0.502-1.268c0.258-0.188,0.661-0.198,1.13-0.209 c1.175-0.03,2.318-0.169,3.398-0.415c0.903-0.206,2.056-0.546,2.943-1.361c1.122-1.029,2.044-2.525,2.403-3.906 C35.582,24.558,35.702,23.324,35.598,22.199z M14.051,34.785c-0.123,0.004-0.405,0.017-0.483-0.055 c-0.063-0.057-0.082-0.242-0.057-0.549c0.266-3.178,0.885-6.308,1.482-9.334c0.525-2.656,1.068-5.404,1.385-8.252 c0.108-0.97,0.22-1.973,0.791-2.641c0.42-0.491,1.119-0.813,1.969-0.907c0.677-0.076,1.361-0.015,2.086,0.049l0.409,0.035 c1.399,0.113,2.82,0.126,4.22,0.04l0.456-0.03c1.287-0.089,2.401-0.167,3.447,0.398c0.821,0.443,1.474,1.293,1.837,2.395 c0.247,0.751,0.333,1.421,0.369,2.162c-0.537-0.222-1.118-0.347-1.694-0.428c-2.521-0.354-5.078-0.346-7.597,0.024 c-0.373,0.055-1.066,0.156-1.499,0.659c-0.312,0.359-0.4,0.817-0.465,1.151l-1.77,9.108c0,0,0,0.001,0,0.001 c-0.028,0.128-0.054,0.256-0.078,0.385c-0.361,1.972-0.709,4.262-0.911,6c-0.807-0.078-2.413-0.219-3.499-0.219 C14.307,34.777,14.173,34.78,14.051,34.785z M31.985,19.225c0.003,0.497-0.013,0.981-0.144,1.425 c-0.137,0.464-0.407,0.94-0.851,1.5c-2.098,2.646-5.01,3.968-8.207,3.721c-0.573-0.044-1.571,0.05-2.167,0.282 c-0.074,0.029-0.135,0.068-0.203,0.102l1.275-6.561c0.048-0.249,0.103-0.531,0.24-0.689c0.176-0.204,0.55-0.273,0.887-0.323 c2.428-0.356,4.888-0.364,7.313-0.023C30.893,18.765,31.507,18.917,31.985,19.225z M34.273,25.616 c-0.31,1.187-1.139,2.529-2.112,3.422c-0.559,0.512-1.326,0.858-2.489,1.123c-1.016,0.231-2.094,0.362-3.242,0.391 c-0.536,0.013-1.144,0.028-1.654,0.401c-0.679,0.495-0.817,1.388-0.9,1.922l-0.71,4.593c-1.504-0.007-3.022-0.051-4.521-0.129 c-0.151-0.007-0.223-0.033-0.132-0.014c0.083-0.556,0.203-1.108,0.358-1.644c0.004-0.015,0.001-0.029,0.004-0.044 c0.003-0.014,0.012-0.027,0.013-0.042c0.188-1.757,0.563-4.277,0.957-6.419c0.195-1.068,0.464-1.833,1.134-2.093 c0.432-0.167,1.271-0.253,1.729-0.217c3.529,0.267,6.756-1.183,9.066-4.097c0.526-0.663,0.853-1.247,1.026-1.838 c0.104-0.351,0.151-0.709,0.174-1.065c0.776,0.644,1.56,1.692,1.628,2.424C34.695,23.3,34.585,24.419,34.273,25.616z"/></svg>